<svg version="1.1" xmlns="http://www.w3.org/2000/svg" xmlns:xlink="http://www.w3.org/1999/xlink">
  <symbol id="plus" viewBox="0 0 24 24">
    <path xmlns="http://www.w3.org/2000/svg" id="icon/content/add_24px_2" d="M19 13H13V19H11V13H5V11H11V5H13V11H19V13Z"/>
  </symbol>
  <symbol id="arr-right" viewBox="0 0 24 24">
    <path xmlns="http://www.w3.org/2000/svg" fill-rule="evenodd" clip-rule="evenodd" d="M8.29289 5.29289C8.68342 4.90237 9.31658 4.90237 9.70711 5.29289L15.7071 11.2929C16.0976 11.6834 16.0976 12.3166 15.7071 12.7071L9.70711 18.7071C9.31658 19.0976 8.68342 19.0976 8.29289 18.7071C7.90237 18.3166 7.90237 17.6834 8.29289 17.2929L13.5858 12L8.29289 6.70711C7.90237 6.31658 7.90237 5.68342 8.29289 5.29289Z"/>
  </symbol>
  <symbol id="edit" viewBox="0 0 24 24">
    <path xmlns="http://www.w3.org/2000/svg" id="icon/content/create_24px_2" fill-rule="evenodd" clip-rule="evenodd" d="M18.3687 3.29001L20.7087 5.63C21.0988 6.01999 21.0988 6.64999 20.7087 7.04001L18.8788 8.87L15.1288 5.12L16.9587 3.29001C17.1487 3.10001 17.3987 3 17.6588 3C17.9188 3 18.1688 3.09 18.3687 3.29001ZM2.99875 17.25V21H6.74875L17.8087 9.94L14.0587 6.19L2.99875 17.25ZM5.91876 19H4.99875V18.08L14.0587 9.01999L14.9788 9.94L5.91876 19Z"/>
  </symbol>
  <symbol id="delete" viewBox="0 0 24 24">
    <path xmlns="http://www.w3.org/2000/svg" id="icon/action/delete_24px_2" fill-rule="evenodd" clip-rule="evenodd" d="M14.5 3H9.5L8.5 4H5V6H19V4H15.5L14.5 3ZM16 9V19H8V9H16ZM6 7H18V19C18 20.1 17.1 21 16 21H8C6.9 21 6 20.1 6 19V7Z"/>
  </symbol>
  <symbol id="close" viewBox="0 0 24 24">
    <path xmlns="http://www.w3.org/2000/svg" id="icon/content/clear_24px_2" d="M19 6.41L17.59 5L12 10.59L6.41 5L5 6.41L10.59 12L5 17.59L6.41 19L12 13.41L17.59 19L19 17.59L13.41 12L19 6.41Z"/>
  </symbol>
  <symbol id="reset" viewBox="0 0 24 24">
    <path xmlns="http://www.w3.org/2000/svg" id="icon/navigation/cancel_24px_2" fill-rule="evenodd" clip-rule="evenodd" d="M12 2C6.46997 2 2 6.47 2 12C2 17.53 6.46997 22 12 22C17.53 22 22 17.53 22 12C22 6.47 17.53 2 12 2ZM12 20C7.58997 20 4 16.41 4 12C4 7.59 7.58997 4 12 4C16.41 4 20 7.59 20 12C20 16.41 16.41 20 12 20ZM12 10.59L15.59 7L17 8.41L13.41 12L17 15.59L15.59 17L12 13.41L8.41003 17L7 15.59L10.59 12L7 8.41L8.41003 7L12 10.59Z"/>
  </symbol>
</svg>
