<svg version="1.1" xmlns="http://www.w3.org/2000/svg" xmlns:xlink="http://www.w3.org/1999/xlink">
    <symbol id="alert" viewBox="0 0 24 24">
        <path xmlns="http://www.w3.org/2000/svg" fill-rule="evenodd" clip-rule="evenodd" d="M18 15.75V10.75C18 7.68 16.37 5.11 13.5 4.43V3.75C13.5 2.92 12.83 2.25 12 2.25C11.17 2.25 10.5 2.92 10.5 3.75V4.43C7.64 5.11 6 7.67 6 10.75V15.75L4 17.75V18.75H20V17.75L18 15.75ZM12 21.75C13.1 21.75 14 20.85 14 19.75H10C10 20.85 10.9 21.75 12 21.75ZM8 16.75H16V10.75C16 8.27 14.49 6.25 12 6.25C9.51 6.25 8 8.27 8 10.75V16.75Z"/>
    </symbol>

    <symbol id="save" viewBox="0 0 24 24">
        <path xmlns="http://www.w3.org/2000/svg" id="icon/content/save_24px_2" fill-rule="evenodd" clip-rule="evenodd" d="M5 3H17L21 7V19C21 20.1 20.1 21 19 21H5C3.89001 21 3 20.1 3 19V5C3 3.89999 3.89001 3 5 3ZM19 19V7.83L16.17 5H5V19H19ZM12 12C10.34 12 9 13.34 9 15C9 16.66 10.34 18 12 18C13.66 18 15 16.66 15 15C15 13.34 13.66 12 12 12ZM15 6H6V10H15V6Z"/>
    </symbol>
    
    <symbol id="plus" viewBox="0 0 24 24">
        <path xmlns="http://www.w3.org/2000/svg" id="icon/content/add_24px_2" d="M19 13H13V19H11V13H5V11H11V5H13V11H19V13Z"/>
    </symbol>
    <symbol id="dots" viewBox="0 0 24 24">
        <path xmlns="http://www.w3.org/2000/svg" id="icon/navigation/more_horiz_24px_2" fill-rule="evenodd" clip-rule="evenodd" d="M6 10C4.90002 10 4 10.9 4 12C4 13.1 4.90002 14 6 14C7.09998 14 8 13.1 8 12C8 10.9 7.09998 10 6 10ZM18 10C16.9 10 16 10.9 16 12C16 13.1 16.9 14 18 14C19.1 14 20 13.1 20 12C20 10.9 19.1 10 18 10ZM10 12C10 10.9 10.9 10 12 10C13.1 10 14 10.9 14 12C14 13.1 13.1 14 12 14C10.9 14 10 13.1 10 12Z"/>
    </symbol>
    <symbol id="dots_vertical" viewBox="0 0 24 24">
        <path xmlns="http://www.w3.org/2000/svg" id="icon/navigation/more_vert_24px_2" fill-rule="evenodd" clip-rule="evenodd" d="M12 8C13.1 8 14 7.10001 14 6C14 4.89999 13.1 4 12 4C10.9 4 10 4.89999 10 6C10 7.10001 10.9 8 12 8ZM12 10C10.9 10 10 10.9 10 12C10 13.1 10.9 14 12 14C13.1 14 14 13.1 14 12C14 10.9 13.1 10 12 10ZM10 18C10 16.9 10.9 16 12 16C13.1 16 14 16.9 14 18C14 19.1 13.1 20 12 20C10.9 20 10 19.1 10 18Z"/>
    </symbol>
    <symbol id="check" viewBox="0 0 24 24">
        <path xmlns="http://www.w3.org/2000/svg" id="icon/action/done_24px_2" d="M8.79995 15.9L4.59995 11.7L3.19995 13.1L8.79995 18.7L20.8 6.7L19.4 5.3L8.79995 15.9Z"/>
    </symbol>
    <symbol id="arr-left" viewBox="0 0 24 24">
        <path xmlns="http://www.w3.org/2000/svg" fill-rule="evenodd" clip-rule="evenodd" d="M15.7071 5.29289C15.3166 4.90237 14.6834 4.90237 14.2929 5.29289L8.29289 11.2929C7.90237 11.6834 7.90237 12.3166 8.29289 12.7071L14.2929 18.7071C14.6834 19.0976 15.3166 19.0976 15.7071 18.7071C16.0976 18.3166 16.0976 17.6834 15.7071 17.2929L10.4142 12L15.7071 6.70711C16.0976 6.31658 16.0976 5.68342 15.7071 5.29289Z"/>
    </symbol>
    <symbol id="arr-right" viewBox="0 0 24 24">
        <path xmlns="http://www.w3.org/2000/svg" fill-rule="evenodd" clip-rule="evenodd" d="M8.29289 5.29289C8.68342 4.90237 9.31658 4.90237 9.70711 5.29289L15.7071 11.2929C16.0976 11.6834 16.0976 12.3166 15.7071 12.7071L9.70711 18.7071C9.31658 19.0976 8.68342 19.0976 8.29289 18.7071C7.90237 18.3166 7.90237 17.6834 8.29289 17.2929L13.5858 12L8.29289 6.70711C7.90237 6.31658 7.90237 5.68342 8.29289 5.29289Z"/>
    </symbol>
    <symbol id="arr-down" viewBox="0 0 24 24">
        <path xmlns="http://www.w3.org/2000/svg" id="icon/navigation/expand_more_24px_2" d="M16.59 8.29501L12 12.875L7.41 8.29501L6 9.70501L12 15.705L18 9.70501L16.59 8.29501Z"/>
    </symbol>
    <symbol id="copy" viewBox="0 0 24 24">
        <path xmlns="http://www.w3.org/2000/svg" id="icon/content/copy_24px_2" fill-rule="evenodd" clip-rule="evenodd" d="M16.5 1H4.5C3.4 1 2.5 1.9 2.5 3V17H4.5V3H16.5V1ZM19.5 5H8.5C7.4 5 6.5 5.9 6.5 7V21C6.5 22.1 7.4 23 8.5 23H19.5C20.6 23 21.5 22.1 21.5 21V7C21.5 5.9 20.6 5 19.5 5ZM8.5 21H19.5V7H8.5V21Z"/>
    </symbol>
    <symbol id="edit" viewBox="0 0 24 24">
        <path xmlns="http://www.w3.org/2000/svg" id="icon/content/create_24px_2" fill-rule="evenodd" clip-rule="evenodd" d="M18.3687 3.29001L20.7087 5.63C21.0988 6.01999 21.0988 6.64999 20.7087 7.04001L18.8788 8.87L15.1288 5.12L16.9587 3.29001C17.1487 3.10001 17.3987 3 17.6588 3C17.9188 3 18.1688 3.09 18.3687 3.29001ZM2.99875 17.25V21H6.74875L17.8087 9.94L14.0587 6.19L2.99875 17.25ZM5.91876 19H4.99875V18.08L14.0587 9.01999L14.9788 9.94L5.91876 19Z"/>
    </symbol>
    <symbol id="delete" viewBox="0 0 24 24">
        <path xmlns="http://www.w3.org/2000/svg" id="icon/action/delete_24px_2" fill-rule="evenodd" clip-rule="evenodd" d="M14.5 3H9.5L8.5 4H5V6H19V4H15.5L14.5 3ZM16 9V19H8V9H16ZM6 7H18V19C18 20.1 17.1 21 16 21H8C6.9 21 6 20.1 6 19V7Z"/>
    </symbol>
    <symbol id="close" viewBox="0 0 24 24">
        <path xmlns="http://www.w3.org/2000/svg" id="icon/content/clear_24px_2" d="M19 6.41L17.59 5L12 10.59L6.41 5L5 6.41L10.59 12L5 17.59L6.41 19L12 13.41L17.59 19L19 17.59L13.41 12L19 6.41Z"/>
    </symbol>
    <symbol id="reset" viewBox="0 0 24 24">
        <path xmlns="http://www.w3.org/2000/svg" id="icon/navigation/cancel_24px_2" fill-rule="evenodd" clip-rule="evenodd" d="M12 2C6.46997 2 2 6.47 2 12C2 17.53 6.46997 22 12 22C17.53 22 22 17.53 22 12C22 6.47 17.53 2 12 2ZM12 20C7.58997 20 4 16.41 4 12C4 7.59 7.58997 4 12 4C16.41 4 20 7.59 20 12C20 16.41 16.41 20 12 20ZM12 10.59L15.59 7L17 8.41L13.41 12L17 15.59L15.59 17L12 13.41L8.41003 17L7 15.59L10.59 12L7 8.41L8.41003 7L12 10.59Z"/>
    </symbol>

    <symbol id="letter-a" viewBox="0 0 24 24">
        <path xmlns="http://www.w3.org/2000/svg" d="M14.9922 16.6094H8.82812L7.65625 20.125H3.91797L10.2695 3.0625H13.5273L19.9141 20.125H16.1758L14.9922 16.6094ZM9.77734 13.7617H14.043L11.8984 7.375L9.77734 13.7617Z"/>
    </symbol>
    <symbol id="letter-b" viewBox="0 0 24 24">
        <path xmlns="http://www.w3.org/2000/svg" d="M14.9922 16.6094H8.82812L7.65625 20.125H3.91797L10.2695 3.0625H13.5273L19.9141 20.125H16.1758L14.9922 16.6094ZM9.77734 13.7617H14.043L11.8984 7.375L9.77734 13.7617Z"/>
    </symbol>
    <symbol id="letter-c" viewBox="0 0 24 24">
        <path xmlns="http://www.w3.org/2000/svg" d="M14.9922 16.6094H8.82812L7.65625 20.125H3.91797L10.2695 3.0625H13.5273L19.9141 20.125H16.1758L14.9922 16.6094ZM9.77734 13.7617H14.043L11.8984 7.375L9.77734 13.7617Z"/>
    </symbol>

    <symbol id="alert-circle" viewBox="0 0 24 24">
        <path xmlns="http://www.w3.org/2000/svg" id="icon/outlined/alert/error_outline_24px_2" fill-rule="evenodd" clip-rule="evenodd" d="M11.99 2C6.47 2 2 6.48 2 12C2 17.52 6.47 22 11.99 22C17.52 22 22 17.52 22 12C22 6.48 17.52 2 11.99 2ZM13 13V7H11V13H13ZM13 17V15H11V17H13ZM4 12C4 16.42 7.58 20 12 20C16.42 20 20 16.42 20 12C20 7.58 16.42 4 12 4C7.58 4 4 7.58 4 12Z"/>
    </symbol>
    <symbol id="error-triangle" viewBox="0 0 24 24">
        <path xmlns="http://www.w3.org/2000/svg" id="icon/outlined/alert/warning_amber_24px_2" fill-rule="evenodd" clip-rule="evenodd" d="M1 21.5L12 2.5L23 21.5H1ZM19.53 19.5L12 6.49L4.47 19.5H19.53ZM11 16.5V18.5H13V16.5H11ZM11 10.5H13V14.5H11V10.5Z"/>
    </symbol>
    <symbol id="error-yellow" viewBox="0 0 24 24">
        <path xmlns="http://www.w3.org/2000/svg" fill-rule="evenodd" clip-rule="evenodd" d="M12 2C6.48 2 2 6.48 2 12C2 17.52 6.48 22 12 22C17.52 22 22 17.52 22 12C22 6.48 17.52 2 12 2ZM11 17V15H13V17H11ZM11 7V13H13V7H11Z"/>
    </symbol>
    <symbol id="error-red" viewBox="0 0 24 24">
        <path xmlns="http://www.w3.org/2000/svg" id="icon/outlined/alert/warning_24px_2" fill-rule="evenodd" clip-rule="evenodd" d="M23 21.5L12 2.5L1 21.5H23ZM11 18.5V16.5H13V18.5H11ZM11 14.5H13V10.5H11V14.5Z"/>
    </symbol>
    <symbol id="error-blue" viewBox="0 0 24 24">
        <path xmlns="http://www.w3.org/2000/svg" d="M22.6559 18.9896L13.5759 9.90958C14.5059 7.56958 14.0259 4.80958 12.1359 2.90958C9.83586 0.609582 6.25586 0.399582 3.70586 2.25958L7.54586 6.10958L6.12586 7.51958L2.29586 3.68958C0.43586 6.22958 0.64586 9.81958 2.94586 12.1096C4.80586 13.9696 7.51586 14.4596 9.83586 13.5896L18.9459 22.6996C19.3359 23.0896 19.9659 23.0896 20.3559 22.6996L22.6559 20.3996C23.0559 20.0196 23.0559 19.3896 22.6559 18.9896Z"/>
    </symbol>
    <symbol id="lang-ru" viewBox="0 0 64 64">
        <path d="M31.9 2C18.9 2 7.79995 10.4 3.69995 22H60.2999C56.0999 10.4 45 2 31.9 2Z" fill="#F9F9F9"/>
        <path d="M31.9 62C45 62 56.1 53.6 60.2 42H3.69995C7.79995 53.7 18.9 62 31.9 62Z" fill="#ED4C5C"/>
        <path d="M3.7 22C2.6 25.1 2 28.5 2 32C2 35.5 2.6 38.9 3.7 42H60.3C61.4 38.9 62 35.5 62 32C62 28.5 61.4 25.1 60.3 22H3.7Z" fill="#428BC1"/>
    </symbol>
    <symbol id="lang-en" viewBox="0 0 64 64">
        <path d="M22 60.3V46.5L11.7 54.1C14.6 56.8 18.1 58.9 22 60.3" fill="#2A5F9E"/>
        <path d="M42 60.3C45.9 58.9 49.4 56.8 52.3 54.1L42 46.4V60.3Z" fill="#2A5F9E"/>
        <path d="M3.69995 42C3.99995 43 4.39995 43.9 4.89995 44.9L8.79995 42H3.69995Z" fill="#2A5F9E"/>
        <path d="M55.2 42L59.0999 44.9C59.4999 44 59.8999 43 60.2999 42H55.2Z" fill="#2A5F9E"/>
        <path d="M23.5 38H2.59998C2.89998 39.4 3.29998 40.7 3.69998 42H8.79998L4.89998 44.9C5.69998 46.6 6.59998 48.1 7.69998 49.6L18 42H22V44L10.3 52.6L11.7 54L22 46.5V60.3C23.3 60.8 24.6 61.1 26 61.4V38H23.5Z" fill="white"/>
        <path d="M61.4 38H38V61.4C39.4 61.1 40.7 60.7 42 60.3V46.5L52.3 54C53.7 52.7 54.9 51.3 56.1 49.8L45.4 42H52.2L58.3 46.5C58.6 46 58.9 45.4 59.1 44.9L55.2 42H60.3C60.7 40.7 61.1 39.4 61.4 38" fill="white"/>
        <path d="M7.69995 49.6C8.49995 50.7 9.29995 51.7 10.2 52.7L22 44.1V42.1H18L7.69995 49.6Z" fill="#ED4C5C"/>
        <path d="M45.5 42L56.2 49.8C56.6 49.3 56.9 48.8 57.3 48.3C57.4 48.2 57.4 48.1 57.5 48.1C57.8 47.6 58.2 47 58.5 46.5L52.2 42H45.5Z" fill="#ED4C5C"/>
        <path d="M42 3.70001V17.5L52.3 9.90001C49.4 7.20001 45.9 5.10001 42 3.70001Z" fill="#2A5F9E"/>
        <path d="M22 3.70001C18.1 5.10001 14.6 7.20001 11.7 9.90001L22 17.6V3.70001Z" fill="#2A5F9E"/>
        <path d="M60.2999 22C59.9999 21 59.5999 20.1 59.0999 19.1L55.2 22H60.2999" fill="#2A5F9E"/>
        <path d="M8.79995 22L4.89995 19.1C4.49995 20.1 4.09995 21 3.69995 22H8.79995Z" fill="#2A5F9E"/>
        <path d="M40.5 26H61.3C61 24.6 60.6 23.3 60.2 22H55.1L59 19.1C58.2 17.4 57.3 15.9 56.2 14.4L46 22H42V20L53.7 11.4L52.3 9.99998L42 17.5V3.69998C40.7 3.19998 39.4 2.89998 38 2.59998V26H40.5Z" fill="white"/>
        <path d="M2.59998 26H26V2.59998C24.6 2.89998 23.3 3.29998 22 3.69998V17.5L11.7 9.99998C10.3 11.3 9.09998 12.7 7.89998 14.2L18.6 22H11.8L5.69998 17.5C5.39998 18 5.09998 18.6 4.89998 19.1L8.79998 22H3.69998C3.29998 23.3 2.89998 24.6 2.59998 26Z" fill="white"/>
        <path d="M56.3 14.4C55.5 13.3 54.7 12.3 53.8 11.3L42 19.9V21.9H46L56.3 14.4" fill="#ED4C5C"/>
        <path d="M18.5 22L7.89998 14.2C7.49998 14.7 7.19998 15.2 6.79998 15.7C6.69998 15.8 6.69998 15.9 6.59998 15.9C6.29998 16.4 5.89998 17 5.59998 17.5L11.7 22H18.5Z" fill="#ED4C5C"/>
        <path d="M61.4 26H38V2.6C36.1 2.2 34.1 2 32 2C29.9 2 27.9 2.2 26 2.6V26H2.6C2.2 27.9 2 29.9 2 32C2 34.1 2.2 36.1 2.6 38H26V61.4C27.9 61.8 29.9 62 32 62C34.1 62 36.1 61.8 38 61.4V38H61.4C61.8 36.1 62 34.1 62 32C62 29.9 61.8 27.9 61.4 26Z" fill="#ED4C5C"/>
    </symbol>
    
    <symbol id="orders" viewBox="0 0 24 24">
        <path xmlns="http://www.w3.org/2000/svg" id="icon/action/shopping_cart_24px_2" fill-rule="evenodd" clip-rule="evenodd" d="M18.2961 11.97C17.9561 12.59 17.2961 13 16.5461 13H9.09609L7.99609 15H19.9961V17H7.99609C6.47609 17 5.51609 15.37 6.24609 14.03L7.59609 11.59L3.99609 4H1.99609V2H5.26609L6.20609 4H21.0061C21.7661 4 22.2461 4.82 21.8761 5.48L18.2961 11.97ZM19.3061 6H7.15609L9.52609 11H16.5461L19.3061 6ZM7.99609 18C6.89609 18 6.00609 18.9 6.00609 20C6.00609 21.1 6.89609 22 7.99609 22C9.09609 22 9.99609 21.1 9.99609 20C9.99609 18.9 9.09609 18 7.99609 18ZM16.0061 20C16.0061 18.9 16.8961 18 17.9961 18C19.0961 18 19.9961 18.9 19.9961 20C19.9961 21.1 19.0961 22 17.9961 22C16.8961 22 16.0061 21.1 16.0061 20Z"/>
    </symbol>
    <symbol id="naryad" viewBox="0 0 24 24">
        <path xmlns="http://www.w3.org/2000/svg" id="icon/action/assignment_ind_24px_2" fill-rule="evenodd" clip-rule="evenodd" d="M19 4H14.82C14.4 2.84 13.3 2 12 2C10.7 2 9.6 2.84 9.18 4H5C3.9 4 3 4.9 3 6V20C3 21.1 3.9 22 5 22H19C20.1 22 21 21.1 21 20V6C21 4.9 20.1 4 19 4ZM12 3.75C12.22 3.75 12.41 3.85 12.55 4C12.67 4.13 12.75 4.31 12.75 4.5C12.75 4.91 12.41 5.25 12 5.25C11.59 5.25 11.25 4.91 11.25 4.5C11.25 4.31 11.33 4.13 11.45 4C11.59 3.85 11.78 3.75 12 3.75ZM5 6V20H19V6H5ZM12 7C10.35 7 9 8.35 9 10C9 11.65 10.35 13 12 13C13.65 13 15 11.65 15 10C15 8.35 13.65 7 12 7ZM11 10C11 10.55 11.45 11 12 11C12.55 11 13 10.55 13 10C13 9.45 12.55 9 12 9C11.45 9 11 9.45 11 10ZM6 17.47V19H18V17.47C18 14.97 14.03 13.89 12 13.89C9.97 13.89 6 14.96 6 17.47ZM12 15.88C10.69 15.88 9 16.44 8.31 17H15.69C15.01 16.44 13.31 15.88 12 15.88Z"/>
    </symbol>
    <symbol id="price" viewBox="0 0 24 24">
        <path xmlns="http://www.w3.org/2000/svg" id="icon/editor/attach_money_24px_2" d="M12.3902 10.9C10.1202 10.31 9.39016 9.7 9.39016 8.75C9.39016 7.66 10.4002 6.9 12.0902 6.9C13.8702 6.9 14.5302 7.75 14.5902 9H16.8002C16.7302 7.28 15.6802 5.7 13.5902 5.19V3H10.5902V5.16C8.65016 5.58 7.09016 6.84 7.09016 8.77C7.09016 11.08 9.00016 12.23 11.7902 12.9C14.2902 13.5 14.7902 14.38 14.7902 15.31C14.7902 16 14.3002 17.1 12.0902 17.1C10.0302 17.1 9.22016 16.18 9.11016 15H6.91016C7.03016 17.19 8.67016 18.42 10.5902 18.83V21H13.5902V18.85C15.5402 18.48 17.0902 17.35 17.0902 15.3C17.0902 12.46 14.6602 11.49 12.3902 10.9Z"/>
    </symbol>
    <symbol id="material" viewBox="0 0 24 24">
        <path xmlns="http://www.w3.org/2000/svg" id="icon/action/opacity_24px_2" fill-rule="evenodd" clip-rule="evenodd" d="M12 2.345L17.66 7.995C19.22 9.555 20 11.635 20 13.635C20 15.635 19.22 17.745 17.66 19.305C16.1 20.865 14.05 21.655 12 21.655C9.95 21.655 7.9 20.865 6.34 19.305C4.78 17.745 4 15.635 4 13.635C4 11.635 4.78 9.555 6.34 7.995L12 2.345ZM7.76 9.595C6.62 10.725 6.01 11.995 6 13.995H18C17.99 11.995 17.38 10.765 16.24 9.645L12 5.265L7.76 9.595Z"/>
    </symbol>
    <symbol id="job_type" viewBox="0 0 24 24">
        <path xmlns="http://www.w3.org/2000/svg" id="icon/action/build_24px_2" fill-rule="evenodd" clip-rule="evenodd" d="M13.5756 9.90957L22.6556 18.9896C23.0556 19.3896 23.0556 20.0196 22.6556 20.3996L20.3556 22.6996C19.9656 23.0896 19.3356 23.0896 18.9456 22.6996L9.83562 13.5896C7.51562 14.4596 4.80562 13.9696 2.94562 12.1096C0.645616 9.81957 0.435616 6.22957 2.29562 3.68957L6.12562 7.51957L7.54562 6.10957L3.70562 2.25957C6.25562 0.399574 9.83562 0.609574 12.1356 2.90957C14.0256 4.80957 14.5056 7.56957 13.5756 9.90957ZM10.1956 11.1296L19.6556 20.5896L20.5356 19.6996L11.0856 10.2496C11.5456 9.65957 11.8456 8.99957 11.9656 8.28957C12.2156 6.89957 11.8056 5.40957 10.7256 4.32957C9.77562 3.38957 8.52562 2.94957 7.28562 3.01957L10.3756 6.10957L6.13562 10.3496L3.04562 7.25957C2.97562 8.49957 3.41562 9.75957 4.36562 10.6996C5.40562 11.7396 6.83562 12.1496 8.19562 11.9496C8.90562 11.8496 9.58562 11.5796 10.1956 11.1296Z"/>
    </symbol>
    <symbol id="users" viewBox="0 0 24 24">
        <path xmlns="http://www.w3.org/2000/svg" id="icon/action/supervisor_account_24px_2" fill-rule="evenodd" clip-rule="evenodd" d="M9 12C10.93 12 12.5 10.43 12.5 8.5C12.5 6.57 10.93 5 9 5C7.07 5 5.5 6.57 5.5 8.5C5.5 10.43 7.07 12 9 12ZM9 7C9.83 7 10.5 7.67 10.5 8.5C10.5 9.33 9.83 10 9 10C8.17 10 7.5 9.33 7.5 8.5C7.5 7.67 8.17 7 9 7ZM4.77 17H9.05C9.02 17.16 9 17.33 9 17.5V19H2V17.5C2 15.17 6.66 14 9 14C9.56 14 10.25 14.07 10.98 14.2C10.27 14.68 9.68 15.28 9.34 16.01C9.28502 16.01 9.22755 16.0075 9.17007 16.005L9.17 16.005L9.16993 16.005C9.11245 16.0025 9.05498 16 9 16C7.47 16 5.76 16.5 4.77 17ZM16.5 14.5C14.66 14.5 11 15.51 11 17.5V19H22V17.5C22 15.51 18.34 14.5 16.5 14.5ZM19 10.5C19 11.44 18.47 12.25 17.71 12.68C17.35 12.88 16.94 13 16.5 13C16.06 13 15.65 12.88 15.29 12.68C14.53 12.25 14 11.44 14 10.5C14 9.12 15.12 8 16.5 8C17.88 8 19 9.12 19 10.5Z"/>
    </symbol>
    <symbol id="info" viewBox="0 0 24 24">
        <path d="M11 7H13V9H11V7Z"/>
        <path d="M11 11H13V17H11V11Z"/>
        <path fill-rule="evenodd" clip-rule="evenodd" d="M2 12C2 6.48 6.47998 2 12 2C17.52 2 22 6.48 22 12C22 17.52 17.52 22 12 22C6.47998 22 2 17.52 2 12ZM4 12C4 16.41 7.58997 20 12 20C16.41 20 20 16.41 20 12C20 7.59 16.41 4 12 4C7.58997 4 4 7.59 4 12Z"/>
    </symbol>
    <!-- <symbol id="fullscreen" viewBox="0 0 19 19">
        <path xmlns="http://www.w3.org/2000/svg" fill-rule="evenodd" clip-rule="evenodd" d="M13.0003 9.81809V6.4558L9.63798 6.4558L9.63268 4.95497H14.5011L14.4958 9.81809H13.0003ZM6.45596 9.63778L6.45596 13.0001L9.81825 13.0001L9.82355 14.5009H4.95512L4.96043 9.63778L6.45596 9.63778Z"/>
    </symbol> -->
    <symbol id="download" viewBox="0 0 18 18">
        <path xmlns="http://www.w3.org/2000/svg" fill-rule="evenodd" clip-rule="evenodd" d="M11.6925 7.5675L9.75 9.5025V2.25H8.25V9.5025L6.3075 7.5675L5.25 8.625L9 12.375L12.75 8.625L11.6925 7.5675ZM14.25 14.25V9H15.75V14.25C15.75 15.075 15.075 15.75 14.25 15.75H3.75C2.925 15.75 2.25 15.075 2.25 14.25V9H3.75V14.25H14.25Z"/>
    </symbol>
    <symbol id="func" viewBox="0 0 18 18">
        <path xmlns="http://www.w3.org/2000/svg" id="icon/editor/functions_24px_2" d="M13.5 3H4.5V4.5L9.375 9L4.5 13.5V15H13.5V12.75H8.25L12 9L8.25 5.25H13.5V3Z"/>
    </symbol>
    <symbol id="eye" viewBox="0 0 24 24">
        <path xmlns="http://www.w3.org/2000/svg" id="icon/action/visibility_24px_2" fill-rule="evenodd" clip-rule="evenodd" d="M1 12C2.72998 7.60999 7 4.5 12 4.5C17 4.5 21.27 7.60999 23 12C21.27 16.39 17 19.5 12 19.5C7 19.5 2.72998 16.39 1 12ZM20.8201 12C19.17 8.63 15.79 6.5 12 6.5C8.21008 6.5 4.83008 8.63 3.18005 12C4.83008 15.37 8.21008 17.5 12 17.5C15.79 17.5 19.17 15.37 20.8201 12ZM12 9.5C13.38 9.5 14.5 10.62 14.5 12C14.5 13.38 13.38 14.5 12 14.5C10.62 14.5 9.5 13.38 9.5 12C9.5 10.62 10.62 9.5 12 9.5ZM7.5 12C7.5 9.52002 9.52002 7.5 12 7.5C14.48 7.5 16.5 9.52002 16.5 12C16.5 14.48 14.48 16.5 12 16.5C9.52002 16.5 7.5 14.48 7.5 12Z"/>
    </symbol>
    <symbol id="eye_hide" viewBox="0 0 18 18">
        <path xmlns="http://www.w3.org/2000/svg" fill-rule="evenodd" clip-rule="evenodd" d="M3.5175 4.89385L1.5075 2.88385L2.565 1.81885L15.8625 15.1238L14.805 16.1813L12.24 13.6163C11.235 14.0138 10.14 14.2313 9 14.2313C5.25 14.2313 2.0475 11.8988 0.75 8.60635C1.3275 7.12885 2.295 5.85385 3.5175 4.89385ZM9.00003 4.48135C11.8425 4.48135 14.3775 6.07885 15.615 8.60635C15.1725 9.52135 14.55 10.3088 13.8075 10.9463L14.865 12.0038C15.9075 11.0813 16.7325 9.92635 17.25 8.60635C15.9525 5.31385 12.75 2.98135 9.00003 2.98135C8.04753 2.98135 7.13253 3.13135 6.27003 3.40885L7.50753 4.64635C7.99503 4.54885 8.49003 4.48135 9.00003 4.48135ZM8.19746 5.33635L9.74996 6.88885C10.1775 7.07635 10.5225 7.42135 10.71 7.84885L12.2625 9.40135C12.3225 9.14635 12.3675 8.87635 12.3675 8.59885C12.375 6.73885 10.86 5.23135 8.99996 5.23135C8.72246 5.23135 8.45996 5.26885 8.19746 5.33635ZM7.1325 8.50885L9.09 10.4663L9.08999 10.4664C9.05999 10.4738 9.03 10.4813 9 10.4813C7.965 10.4813 7.125 9.64135 7.125 8.60635C7.125 8.5876 7.12687 8.5726 7.12875 8.5576L7.12875 8.55759C7.13063 8.54259 7.1325 8.52759 7.1325 8.50885ZM5.89496 7.27135L4.58246 5.95885C3.67496 6.64885 2.90996 7.53385 2.38496 8.60635C3.62246 11.1338 6.15746 12.7313 8.99996 12.7313C9.71246 12.7313 10.4025 12.6263 11.0625 12.4463L10.3275 11.7113C9.92246 11.8838 9.47246 11.9813 8.99996 11.9813C7.13996 11.9813 5.62496 10.4663 5.62496 8.60635C5.62496 8.13385 5.72246 7.68385 5.89496 7.27135Z"/>
    </symbol>
    <symbol id="chart-down" viewBox="0 0 24 24">
        <path xmlns="http://www.w3.org/2000/svg" id="icon/navigation/arrow_downward_24px_2" d="M20 12L18.59 10.59L13 16.17V4H11V16.17L5.42 10.58L4 12L12 20L20 12Z"/>
    </symbol>
    <symbol id="chart-up" viewBox="0 0 24 24">
        <path xmlns="http://www.w3.org/2000/svg" id="icon/navigation/arrow_upward_24px_2" d="M4 12L5.41 13.41L11 7.83V20H13V7.83L18.58 13.42L20 12L12 4L4 12Z"/>
    </symbol>
    <symbol id="user-plus" viewBox="0 0 24 24">
        <path xmlns="http://www.w3.org/2000/svg" fill-rule="evenodd" clip-rule="evenodd" d="M13.5 6.5C13.5 8.43 11.93 10 10 10C8.07 10 6.5 8.43 6.5 6.5C6.5 4.57 8.07 3 10 3C11.93 3 13.5 4.57 13.5 6.5ZM11.5 6.5C11.5 5.67 10.83 5 10 5C9.17 5 8.5 5.67 8.5 6.5C8.5 7.33 9.17 8 10 8C10.83 8 11.5 7.33 11.5 6.5ZM9.07099 15C9.02421 15.3266 9 15.6605 9 16C9 16.3395 9.02421 16.6734 9.07099 17H3V15.5C3 13.17 7.66 12 10 12C10.0816 12 10.1659 12.0015 10.2528 12.0044C9.82603 12.6168 9.49466 13.3006 9.2802 14.0341C7.95806 14.1547 6.60682 14.5774 5.77 15H9.07099ZM15.9166 10.9167C13.1566 10.9167 10.9166 13.1567 10.9166 15.9167C10.9166 18.6767 13.1566 20.9167 15.9166 20.9167C18.6766 20.9167 20.9166 18.6767 20.9166 15.9167C20.9166 13.1567 18.6766 10.9167 15.9166 10.9167ZM18.4166 16.4166H16.4166V18.4166H15.4166V16.4166H13.4166V15.4166H15.4166V13.4166H16.4166V15.4166H18.4166V16.4166Z"/>
    </symbol>
    <symbol id="user-minus" viewBox="0 0 24 24">
        <path xmlns="http://www.w3.org/2000/svg" fill-rule="evenodd" clip-rule="evenodd" d="M13.5 6.5C13.5 8.43 11.93 10 10 10C8.07 10 6.5 8.43 6.5 6.5C6.5 4.57 8.07 3 10 3C11.93 3 13.5 4.57 13.5 6.5ZM11.5 6.5C11.5 5.67 10.83 5 10 5C9.17 5 8.5 5.67 8.5 6.5C8.5 7.33 9.17 8 10 8C10.83 8 11.5 7.33 11.5 6.5ZM9.07099 15C9.02421 15.3266 9 15.6605 9 16C9 16.3395 9.02421 16.6734 9.07099 17H3V15.5C3 13.17 7.66 12 10 12C10.0816 12 10.1659 12.0015 10.2528 12.0044C9.82603 12.6168 9.49466 13.3006 9.2802 14.0341C7.95806 14.1547 6.60682 14.5774 5.77 15H9.07099ZM15.9166 10.9167C13.1566 10.9167 10.9166 13.1567 10.9166 15.9167C10.9166 18.6767 13.1566 20.9167 15.9166 20.9167C18.6766 20.9167 20.9166 18.6767 20.9166 15.9167C20.9166 13.1567 18.6766 10.9167 15.9166 10.9167ZM18.5 16.5H13.5V15.5H18.5V16.5Z"/>
    </symbol>
    <symbol id="boat" viewBox="0 0 24 24">
        <path xmlns="http://www.w3.org/2000/svg" id="icon/maps/directions_boat_24px_2" fill-rule="evenodd" clip-rule="evenodd" d="M9.0011 1H15.0011V4H18.0011C19.1011 4 20.0011 4.89999 20.0011 6V10.62L21.2811 11.04C21.5411 11.12 21.7611 11.3 21.8811 11.54C22.0011 11.78 22.0211 12.06 21.9412 12.32L20.0511 19H20.0011C18.4011 19 16.9811 18.12 16.0011 17C15.0211 18.12 13.6011 19 12.0011 19C10.4011 19 8.98108 18.12 8.0011 17C7.02112 18.12 5.60107 19 4.0011 19H3.95105L2.05115 12.32C1.96106 12.06 1.99109 11.78 2.11108 11.54C2.23108 11.3 2.45105 11.12 2.71106 11.04L4.0011 10.62V6C4.0011 4.89999 4.90112 4 6.0011 4H9.0011V1ZM13.0011 3V4H11.0011V3H13.0011ZM12.0011 10.11L17.3811 11.88L19.7711 12.66L18.6511 16.63C18.1111 16.33 17.7111 15.92 17.5111 15.69L16.0011 13.96L14.4911 15.68C14.1511 16.08 13.2111 17 12.0011 17C10.791 17 9.85107 16.08 9.51111 15.68L8.0011 13.96L6.49109 15.68C6.29102 15.91 5.89111 16.31 5.35107 16.61L4.22107 12.65L6.62109 11.86L12.0011 10.11ZM6.0011 9.97V6H18.0011V9.97L12.0011 8L6.0011 9.97ZM12.0011 20.96C13.3911 20.96 14.7811 20.53 16.0011 19.68C17.2211 20.53 18.6111 21 20.0011 21H22.0011V23H20.0011C18.6211 23 17.2611 22.66 16.0011 22.01C14.7411 22.66 13.3711 22.98 12.0011 22.98C10.6311 22.98 9.26111 22.65 8.0011 22.01C6.74109 22.65 5.3811 23 4.0011 23H2.0011V21H4.0011C5.39111 21 6.78113 20.53 8.0011 19.68C9.22107 20.53 10.6111 20.96 12.0011 20.96Z"/>
    </symbol>
    <symbol id="invalid" viewBox="0 0 24 24">
        <path xmlns="http://www.w3.org/2000/svg" id="icon/action/accessible_forward_24px_2" fill-rule="evenodd" clip-rule="evenodd" d="M17.5 2.26999C16.3954 2.26999 15.5 3.16541 15.5 4.26999C15.5 5.37457 16.3954 6.26999 17.5 6.26999C18.6046 6.26999 19.5 5.37457 19.5 4.26999C19.5 3.16541 18.6046 2.26999 17.5 2.26999ZM14.5 16.73H12.5C12.5 18.38 11.15 19.73 9.5 19.73C7.84998 19.73 6.5 18.38 6.5 16.73C6.5 15.08 7.84998 13.73 9.5 13.73V11.73C6.73999 11.73 4.5 13.97 4.5 16.73C4.5 19.49 6.73999 21.73 9.5 21.73C12.26 21.73 14.5 19.49 14.5 16.73ZM15.64 13.23H17.5C18.6 13.23 19.5 14.13 19.5 15.23V20.73H17.5V15.73H12.52C11.0599 15.73 10.0699 14.16 10.6699 12.83L12.5 8.72998H10.2899L9.64001 10.26L7.71997 9.72998L8.39001 7.92999C8.71997 7.19998 9.44995 6.72998 10.26 6.72998H15.46C16.9399 6.72998 17.9199 8.22998 17.3099 9.55997L15.64 13.23Z"/>
    </symbol>

    <symbol id="newchart-pie" viewBox="0 0 512.548 512.548">
        <path style="fill:#FFC107;" d="M266.941,0c-5.891,0-10.667,4.776-10.667,10.667v234.667c0,5.891,4.776,10.667,10.667,10.667h234.667  c5.891,0,10.667-4.776,10.667-10.667C512.121,109.903,402.371,0.153,266.941,0z"/>
        <path style="fill:#2196F3;" d="M382.034,452.117L234.941,263.019V32c0-5.891-4.776-10.667-10.667-10.667  c-123.52,0-224,110.059-224,245.333C0.427,402.097,110.177,511.847,245.607,512c49.173,3.821,97.795-12.45,134.763-45.099  C384.837,463.237,385.575,456.683,382.034,452.117z"/>
        <path style="fill:#4CAF50;" d="M501.607,277.333H288.274c-5.891,0.001-10.666,4.778-10.664,10.669c0,2.437,0.835,4.8,2.366,6.696  l138.667,171.669c1.86,2.308,4.596,3.737,7.552,3.947h0.747c2.699,0.002,5.299-1.02,7.275-2.859  c49.69-46.469,77.943-111.423,78.059-179.456C512.274,282.109,507.499,277.333,501.607,277.333z"/>
    </symbol>
    <symbol id="newchart-donut" viewBox="0 0 512.548 512.548">
        <path style="fill:#2196F3;" d="M331.73,387.456c-3.329-4.282-9.342-5.384-13.973-2.56c-65.256,39.949-150.541,19.434-190.49-45.822  s-19.434-150.541,45.822-190.49c16.091-9.851,34.024-16.311,52.7-18.985c5.253-0.754,9.153-5.254,9.152-10.56V32  c0-5.891-4.776-10.667-10.667-10.667c-123.52,0-224,110.059-224,245.333C0.427,402.097,110.177,511.847,245.607,512  c49.173,3.821,97.795-12.45,134.763-45.099c4.46-3.67,5.188-10.224,1.643-14.784L331.73,387.456z"/>
        <path style="fill:#FFC107;" d="M266.941,106.667c76.544,0.094,138.573,62.122,138.667,138.667c0,5.891,4.776,10.667,10.667,10.667  h85.333c5.891,0,10.667-4.776,10.667-10.667C512.121,109.903,402.371,0.153,266.941,0c-5.891,0-10.667,4.776-10.667,10.667V96  C256.274,101.891,261.05,106.667,266.941,106.667z"/>
        <path style="fill:#F44336;" d="M501.607,277.333h-87.019c-5.347-0.054-9.908,3.859-10.667,9.152  c-4.805,33.585-21.78,64.234-47.701,86.123c-4.481,3.752-5.109,10.41-1.408,14.933l63.744,78.933  c1.86,2.308,4.596,3.737,7.552,3.947h0.832c2.699,0.002,5.299-1.02,7.275-2.859C483.933,421.068,512.188,356.07,512.274,288  C512.274,282.109,507.499,277.333,501.607,277.333z"/>
    </symbol>
    <symbol id="newchart-donut" viewBox="0 0 512.548 512.548">
        <path style="fill:#2196F3;" d="M331.73,387.456c-3.329-4.282-9.342-5.384-13.973-2.56c-65.256,39.949-150.541,19.434-190.49-45.822  s-19.434-150.541,45.822-190.49c16.091-9.851,34.024-16.311,52.7-18.985c5.253-0.754,9.153-5.254,9.152-10.56V32  c0-5.891-4.776-10.667-10.667-10.667c-123.52,0-224,110.059-224,245.333C0.427,402.097,110.177,511.847,245.607,512  c49.173,3.821,97.795-12.45,134.763-45.099c4.46-3.67,5.188-10.224,1.643-14.784L331.73,387.456z"/>
        <path style="fill:#FFC107;" d="M266.941,106.667c76.544,0.094,138.573,62.122,138.667,138.667c0,5.891,4.776,10.667,10.667,10.667  h85.333c5.891,0,10.667-4.776,10.667-10.667C512.121,109.903,402.371,0.153,266.941,0c-5.891,0-10.667,4.776-10.667,10.667V96  C256.274,101.891,261.05,106.667,266.941,106.667z"/>
        <path style="fill:#F44336;" d="M501.607,277.333h-87.019c-5.347-0.054-9.908,3.859-10.667,9.152  c-4.805,33.585-21.78,64.234-47.701,86.123c-4.481,3.752-5.109,10.41-1.408,14.933l63.744,78.933  c1.86,2.308,4.596,3.737,7.552,3.947h0.832c2.699,0.002,5.299-1.02,7.275-2.859C483.933,421.068,512.188,356.07,512.274,288  C512.274,282.109,507.499,277.333,501.607,277.333z"/>
    </symbol>
    <symbol id="newchart-bar" viewBox="0 0 512 512">
        <path style="fill:#FFC107;" d="M10.784,234.667h106.667c5.891,0,10.667,4.776,10.667,10.667v256c0,5.891-4.776,10.667-10.667,10.667  H10.784c-5.891,0-10.667-4.776-10.667-10.667v-256C0.117,239.442,4.893,234.667,10.784,234.667z"/>
        <path style="fill:#4CAF50;" d="M202.549,0h106.667c5.891,0,10.667,4.776,10.667,10.667v490.667c0,5.891-4.776,10.667-10.667,10.667  H202.549c-5.891,0-10.667-4.776-10.667-10.667V10.667C191.883,4.776,196.658,0,202.549,0z"/>
        <path style="fill:#2196F3;" d="M394.549,106.667h106.667c5.891,0,10.667,4.776,10.667,10.667v384  c0,5.891-4.776,10.667-10.667,10.667H394.549c-5.891,0-10.667-4.776-10.667-10.667v-384  C383.883,111.442,388.658,106.667,394.549,106.667z"/>
    </symbol>
    <symbol id="newchart-bar-hor" viewBox="0 0 512 512">
        <g>
            <path style="fill:#455A64;" d="M501.333,469.333H10.667C4.776,469.333,0,464.558,0,458.667C0,452.776,4.776,448,10.667,448h490.667   c5.891,0,10.667,4.776,10.667,10.667C512,464.558,507.224,469.333,501.333,469.333z"/>
            <path style="fill:#455A64;" d="M53.333,512c-5.891,0-10.667-4.776-10.667-10.667V10.667C42.667,4.776,47.442,0,53.333,0   S64,4.776,64,10.667v490.667C64,507.224,59.224,512,53.333,512z"/>
        </g>
        <path style="fill:#4CAF50;" d="M117.333,320h192c5.891,0,10.667,4.776,10.667,10.667v64c0,5.891-4.776,10.667-10.667,10.667h-192  c-5.891,0-10.667-4.776-10.667-10.667v-64C106.667,324.776,111.442,320,117.333,320z"/>
        <path style="fill:#2196F3;" d="M117.333,64h256C379.224,64,384,68.776,384,74.667v64c0,5.891-4.776,10.667-10.667,10.667h-256  c-5.891,0-10.667-4.776-10.667-10.667v-64C106.667,68.776,111.442,64,117.333,64z"/>
        <path style="fill:#FFC107;" d="M117.333,192H480c5.891,0,10.667,4.776,10.667,10.667v64c0,5.891-4.776,10.667-10.667,10.667H117.333  c-5.891,0-10.667-4.776-10.667-10.667v-64C106.667,196.776,111.442,192,117.333,192z"/>
    </symbol>
    <symbol id="newchart-bar-minus" viewBox="0 0 512 512">
        <path style="fill:#455A64;" d="M490.667,256H21.333c-5.891,0-10.667,4.776-10.667,10.667c0,5.891,4.776,10.667,10.667,10.667  h469.333c5.891,0,10.667-4.776,10.667-10.667C501.333,260.776,496.558,256,490.667,256z"/>
        <path style="fill:#2196F3;" d="M64,128h85.333c5.891,0,10.667,4.776,10.667,10.667V224c0,5.891-4.776,10.667-10.667,10.667H64  c-5.891,0-10.667-4.776-10.667-10.667v-85.333C53.333,132.776,58.109,128,64,128z"/>
        <path style="fill:#FFC107;" d="M213.333,0h85.333c5.891,0,10.667,4.776,10.667,10.667V224c0,5.891-4.776,10.667-10.667,10.667  h-85.333c-5.891,0-10.667-4.776-10.667-10.667V10.667C202.667,4.776,207.442,0,213.333,0z"/>
        <path style="fill:#4CAF50;" d="M362.667,42.667H448c5.891,0,10.667,4.776,10.667,10.667V224c0,5.891-4.776,10.667-10.667,10.667  h-85.333c-5.891,0-10.667-4.776-10.667-10.667V53.333C352,47.442,356.776,42.667,362.667,42.667z"/>
        <path style="fill:#FFC107;" d="M213.333,298.667h85.333c5.891,0,10.667,4.776,10.667,10.667v85.333  c0,5.891-4.776,10.667-10.667,10.667h-85.333c-5.891,0-10.667-4.776-10.667-10.667v-85.333  C202.667,303.442,207.442,298.667,213.333,298.667z"/>
        <path style="fill:#2196F3;" d="M64,298.667h85.333c5.891,0,10.667,4.776,10.667,10.667v192c0,5.891-4.776,10.667-10.667,10.667H64  c-5.891,0-10.667-4.776-10.667-10.667v-192C53.333,303.442,58.109,298.667,64,298.667z"/>
        <path style="fill:#4CAF50;" d="M362.667,298.667H448c5.891,0,10.667,4.776,10.667,10.667v128c0,5.891-4.776,10.667-10.667,10.667  h-85.333c-5.891,0-10.667-4.776-10.667-10.667v-128C352,303.442,356.776,298.667,362.667,298.667z"/>
    </symbol>
    <symbol id="newchart-line-dots" viewBox="0 0 512 512">
        <path style="fill:#455A64;" d="M501.333,448H64V10.667C64,4.776,59.224,0,53.333,0S42.667,4.776,42.667,10.667V448h-32  C4.776,448,0,452.776,0,458.667c0,5.891,4.776,10.667,10.667,10.667h32v32c0,5.891,4.776,10.667,10.667,10.667  S64,507.224,64,501.333v-32h437.333c5.891,0,10.667-4.776,10.667-10.667C512,452.776,507.224,448,501.333,448z"/>
        <g>
            <path style="fill:#607D8B;" d="M160,426.667c-5.891,0-10.667-4.776-10.667-10.667v-21.333c0-5.891,4.776-10.667,10.667-10.667   c5.891,0,10.667,4.776,10.667,10.667V416C170.667,421.891,165.891,426.667,160,426.667z"/>
            <path style="fill:#607D8B;" d="M288,426.667c-5.891,0-10.667-4.776-10.667-10.667V266.667c0-5.891,4.776-10.667,10.667-10.667   c5.891,0,10.667,4.776,10.667,10.667V416C298.667,421.891,293.891,426.667,288,426.667z"/>
            <path style="fill:#607D8B;" d="M437.333,426.667c-5.891,0-10.667-4.776-10.667-10.667V181.333c0-5.891,4.776-10.667,10.667-10.667   S448,175.442,448,181.333V416C448,421.891,443.224,426.667,437.333,426.667z"/>
            <path style="fill:#607D8B;" d="M192,288c-5.891,0.011-10.675-4.757-10.686-10.648c-0.005-2.84,1.123-5.565,3.134-7.571l64-64   c4.237-4.092,10.99-3.975,15.083,0.262c3.992,4.134,3.992,10.687,0,14.82l-64,64C197.535,286.866,194.827,287.994,192,288z"/>
            <path style="fill:#607D8B;" d="M330.667,170.667c-5.891,0.007-10.673-4.763-10.68-10.654c-0.004-3.571,1.778-6.907,4.749-8.888   l64-42.667c4.901-3.27,11.525-1.947,14.795,2.955c3.27,4.901,1.947,11.525-2.955,14.795l-64,42.667   C334.826,170.042,332.77,170.665,330.667,170.667z"/>
        </g>
        <circle style="fill:#FFC107;" cx="160" cy="309.333" r="53.333"/>
        <circle style="fill:#4CAF50;" cx="288" cy="181.333" r="53.333"/>
        <circle style="fill:#2196F3;" cx="437.333" cy="96" r="53.333"/>
    </symbol>
    <symbol id="newchart-line-solid" viewBox="0 0 512 512">
        <path style="fill:#81C784;" d="M506.944,278.912c-3.146-1.934-7.067-2.103-10.368-0.448L416,318.741l-80.555-40.299  c-3.722-1.86-8.187-1.385-11.435,1.216l-102.549,82.048l-80.213-20.053c-3.638-0.908-7.485,0.162-10.133,2.816l-85.333,85.333  c-1.994,1.999-3.114,4.707-3.115,7.531v21.333c0,5.891,4.776,10.667,10.667,10.667h448c5.891,0,10.667-4.776,10.667-10.667V288  C512.006,284.299,510.092,280.859,506.944,278.912z"/>
        <path style="fill:#4CAF50;" d="M506.112,150.464c-3.615-1.812-7.944-1.423-11.179,1.003l-80.064,60.053l-79.424-39.723  c-4.107-2.05-9.065-1.242-12.309,2.005L219.584,277.333h-80.917c-1.658,0.006-3.293,0.393-4.779,1.131l-85.333,42.667  c-3.609,1.808-5.888,5.499-5.888,9.536v106.667c-0.011,5.891,4.757,10.675,10.648,10.686c2.84,0.005,5.565-1.123,7.571-3.134  l81.067-81.067l79.488,19.883c3.234,0.788,6.65,0.04,9.259-2.027l101.333-81.067l79.232,39.616c3.002,1.5,6.534,1.5,9.536,0  l85.333-42.667c3.608-1.818,5.879-5.518,5.867-9.557V160C512,155.963,509.721,152.272,506.112,150.464z"/>
        <path style="fill:#388E3C;" d="M506.944,22.912c-3.146-1.934-7.067-2.103-10.368-0.448L413.483,64h-82.816  c-3.165,0.001-6.166,1.408-8.192,3.84L219.008,192H53.333c-5.891,0-10.667,4.776-10.667,10.667v128  c0,5.891,4.776,10.667,10.667,10.666c1.659,0,3.295-0.387,4.778-1.13l83.072-41.536H224c2.831,0.005,5.548-1.115,7.552-3.115  L332.8,194.304l78.464,39.232c3.604,1.794,7.911,1.406,11.136-1.003l85.333-64c2.686-2.014,4.267-5.176,4.267-8.533V32  C512.006,28.299,510.092,24.859,506.944,22.912z"/>
        <g>
            <path style="fill:#455A64;" d="M501.333,469.333H10.667C4.776,469.333,0,464.558,0,458.667C0,452.776,4.776,448,10.667,448h490.667   c5.891,0,10.667,4.776,10.667,10.667C512,464.558,507.224,469.333,501.333,469.333z"/>
            <path style="fill:#455A64;" d="M53.333,512c-5.891,0-10.667-4.776-10.667-10.667V10.667C42.667,4.776,47.442,0,53.333,0   S64,4.776,64,10.667v490.667C64,507.224,59.224,512,53.333,512z"/>
        </g>
    </symbol>
    <symbol id="rub" viewBox="0 0 510.127 510.127">
        <path xmlns="http://www.w3.org/2000/svg" d="M34.786,428.963h81.158v69.572c0,3.385,1.083,6.156,3.262,8.322c2.173,2.18,4.951,3.27,8.335,3.27h60.502    c3.14,0,5.857-1.09,8.152-3.27c2.295-2.166,3.439-4.938,3.439-8.322v-69.572h182.964c3.377,0,6.156-1.076,8.334-3.256    c2.18-2.178,3.262-4.951,3.262-8.336v-46.377c0-3.365-1.082-6.156-3.262-8.322c-2.172-2.18-4.957-3.27-8.334-3.27H199.628v-42.754    h123.184c48.305,0,87.73-14.719,118.293-44.199c30.551-29.449,45.834-67.49,45.834-114.125c0-46.604-15.283-84.646-45.834-114.125    C410.548,14.749,371.116,0,322.812,0H127.535c-3.385,0-6.157,1.089-8.335,3.256c-2.173,2.179-3.262,4.969-3.262,8.335v227.896    H34.786c-3.384,0-6.157,1.145-8.335,3.439c-2.172,2.295-3.262,5.012-3.262,8.151v53.978c0,3.385,1.083,6.158,3.262,8.336    c2.179,2.18,4.945,3.256,8.335,3.256h81.158v42.754H34.786c-3.384,0-6.157,1.09-8.335,3.27c-2.172,2.166-3.262,4.951-3.262,8.322    v46.377c0,3.385,1.083,6.158,3.262,8.336C28.629,427.887,31.401,428.963,34.786,428.963z M199.628,77.179h115.938    c25.6,0,46.248,7.485,61.953,22.46c15.697,14.976,23.549,34.547,23.549,58.691c0,24.156-7.852,43.733-23.549,58.691    c-15.705,14.988-36.354,22.473-61.953,22.473H199.628V77.179z"/>
    </symbol>
    <symbol id="drag" viewBox="0 0 24 24">
        <path xmlns="http://www.w3.org/2000/svg" id="icon/av/control_camera_24px_2" fill-rule="evenodd" clip-rule="evenodd" d="M10.23 7.3L8.46 5.54L12 2L15.54 5.54L13.77 7.3L12 5.54L10.23 7.3ZM2 12L5.54 8.46L7.3 10.23L5.54 12L7.3 13.77L5.54 15.54L2 12ZM10.23 16.7L12 18.46L13.77 16.7L15.54 18.46L12 22L8.46 18.46L10.23 16.7ZM18.46 8.46L16.7 10.23L18.46 12L16.7 13.77L18.46 15.54L22 12L18.46 8.46Z"/>
    </symbol>
    <symbol id="globus" viewBox="0 0 24 24">
        <path xmlns="http://www.w3.org/2000/svg" id="icon/social/publicon/social/24px_2" fill-rule="evenodd" clip-rule="evenodd" d="M12 2C6.47998 2 2 6.47998 2 12C2 17.52 6.47998 22 12 22C17.52 22 22 17.52 22 12C22 6.47998 17.52 2 12 2ZM4 12C4 11.39 4.07996 10.79 4.20996 10.22L8.98999 15V16C8.98999 17.1 9.89001 18 10.99 18V19.93C7.06006 19.43 4 16.0699 4 12ZM15.99 16C16.89 16 17.63 16.59 17.89 17.4C19.1899 15.98 20 14.08 20 12C20 8.65002 17.92 5.77002 14.99 4.59003V5C14.99 6.10004 14.09 7 12.99 7H10.99V9C10.99 9.55005 10.54 10 9.98999 10H7.98999V12H13.99C14.54 12 14.99 12.45 14.99 13V16H15.99Z"/>
    </symbol>
    <symbol id="logout" viewBox="0 0 24 24">
        <path xmlns="http://www.w3.org/2000/svg" id="icon/action/exit_to_app_24px_2" fill-rule="evenodd" clip-rule="evenodd" d="M5 3H19C20.1 3 21 3.9 21 5V19C21 20.1 20.1 21 19 21H5C3.89001 21 3 20.1 3 19V15H5V19H19V5H5V9H3V5C3 3.9 3.89001 3 5 3ZM11.5 17L10.09 15.59L12.67 13H3V11H12.67L10.09 8.41L11.5 7L16.5 12L11.5 17Z"/>
    </symbol>
    <symbol id="time" viewBox="0 0 24 24">
        <path xmlns="http://www.w3.org/2000/svg" id="icon/action/watch_later_24px_2" fill-rule="evenodd" clip-rule="evenodd" d="M12 2C6.5 2 2 6.5 2 12C2 17.5 6.5 22 12 22C17.5 22 22 17.5 22 12C22 6.5 17.5 2 12 2ZM12 20C7.58997 20 4 16.41 4 12C4 7.59003 7.58997 4 12 4C16.41 4 20 7.59003 20 12C20 16.41 16.41 20 12 20ZM11 7H12.5V12.2L17 14.9L16.2 16.2L11 13V7Z"/>
    </symbol>
    <symbol id="attach" viewBox="0 0 24 24">
        <path xmlns="http://www.w3.org/2000/svg" d="M19.0711 10.5858L10.9394 18.7175C9.37665 20.2802 6.8452 20.2802 5.2825 18.7175C3.71979 17.1548 3.71979 14.6234 5.2825 13.0607L14.1213 4.22185C15.0971 3.24604 16.6811 3.24604 17.6569 4.22185C18.6327 5.19766 18.6327 6.78158 17.6569 7.75738L10.2322 15.182C9.84334 15.5709 9.20694 15.5709 8.81803 15.182C8.42912 14.7931 8.42912 14.1567 8.81803 13.7678L15.5355 7.05028L14.4749 5.98962L7.75737 12.7071C6.78156 13.6829 6.78156 15.2669 7.75737 16.2427C8.73318 17.2185 10.3171 17.2185 11.2929 16.2427L18.7175 8.81804C20.2802 7.25534 20.2802 4.7239 18.7175 3.16119C17.1548 1.59848 14.6234 1.59848 13.0607 3.16119L4.22184 12C2.07223 14.1496 2.07223 17.6286 4.22184 19.7782C6.37144 21.9278 9.85041 21.9278 12 19.7782L20.1317 11.6465L19.0711 10.5858Z"/>
    </symbol>
    <symbol id="hashtag" viewBox="0 0 24 24">
        <path xmlns="http://www.w3.org/2000/svg" d="M12.5703 15.2578H9.47656L8.53906 20.0625H6.86328L7.80078 15.2578H5V13.6523H8.10547L8.91406 9.50391H5.89062V7.875H9.23047L10.1914 3H11.8672L10.9062 7.875H14L14.9609 3H16.6484L15.6875 7.875H18.0781V9.50391H15.3711L14.5625 13.6523H17.1992V15.2578H14.2578L13.3203 20.0625H11.6328L12.5703 15.2578ZM9.78125 13.6523H12.875L13.6836 9.50391H10.5898L9.78125 13.6523Z" />
    </symbol>
</svg>
